<?xml version="1.0" encoding="UTF-8"?>
<svg id="Layer_1" data-name="Layer 1" xmlns="http://www.w3.org/2000/svg" viewBox="0 0 842.13 985.84">
  <defs>
    <style>
      .cls-1 {
        fill: #fdfdfc;
        stroke-width: 0px;
      }
    </style>
  </defs>
  <path class="cls-1" d="M27.4,66.27c47.21-1.28,89.07,6.86,126.48,38.09,66.15,55.21,60.95,144.27,61.18,221.93l.08,181.23c-.06,37.69-.86,74.85,1.61,112.49,6.97,106.45,93.55,175.65,199.23,165.87,42.47-3.55,83.05-19.14,116.97-44.95,92.36-69.31,92.93-166.31,91.37-269.59-.81-53.71-.31-108.8-.54-162.62.54-8.04-1.42-37.8,5.3-42.69,16.26-11.84,61.03,23.88,70.98,33.39,40.76,38.96,42.64,101.83,43.46,154.32.27,25.33.36,50.67.3,76-.11,28.44.91,59.71-.19,87.72-3.47,84.27-23.66,162.29-76.5,229.62-127.43,162.4-369.95,181.63-532.07,60.97C60.91,852.85,16.04,761.04,3.14,670.93c-4.6-32.15-2.79-71.35-2.76-104.35l.03-154.11.05-198.05c-.06-37.93-.93-76.13.76-114,.82-18.45,6-31.92,26.19-34.14Z"/>
  <path class="cls-1" d="M548.39.27c32.61-1.76,32.41,4.66,45.8,30.51,13.33,25.75,39.38,45.82,63.55,61.14,59.59,38.01,123.95,60.45,161.72,125.48,35.17,60.55,31.75,164.75-26.84,211.97-1.84,1.48-4.59.74-6.61.17-2.7-2.29-5.04-5.81-5.16-9.34-1.14-34.32-4.14-64.88-16.53-97.5-17.4-45.81-55.32-75.56-99.64-93.86-20.16-8.32-45.76-16.27-67.19-7.41l-1.19.51c-3.33,4.16-8.05,10.61-8.7,15.95-3.52,28.74-2.76,61.05-2.78,89.91l.27,153.28c-.02,33.57,1.23,59.36-1.59,93.15-11.16,83.39-58.86,146.18-141.48,168.21-126.33,33.67-234.19-80.57-162.98-199.56,36.36-60.76,103.18-96.85,173.8-90.85,17.49,1.38,59.93,24.05,67.19-4.54,3.74-26.18,2.01-61.22,1.97-88.52l-.05-205.92c-.01-37.68-.88-75.74.72-113.35.98-23.07,1.95-33.98,25.72-39.44Z"/>
</svg>